<?xml version="1.0" encoding="utf-8"?>
<!-- Generator: Adobe Illustrator 23.0.6, SVG Export Plug-In . SVG Version: 6.00 Build 0)  -->
<svg version="1.1" id="Layer_1" xmlns="http://www.w3.org/2000/svg" xmlns:xlink="http://www.w3.org/1999/xlink" x="0px" y="0px"
	 viewBox="0 0 180 180" style="enable-background:new 0 0 180 180;" xml:space="preserve">
<style type="text/css">
	.st0{font-family:'National-Bold';}
	.st1{font-size:12px;}
	.st2{fill:none;stroke:#010101;stroke-width:4.4788;stroke-miterlimit:10;}
</style>
<g>
	<path d="M84.2,73.1c0,0.5,0.1,1,0,1.4c1.9-0.3,3.9-0.5,5.9-0.5c6,0,11.6,1.5,16.5,4.2c0.3-2.9,1.9-5.5,4.2-7.1
		c-6.1-3.4-13.2-5.3-20.7-5.3c-3.1,0-6.2,0.3-9.1,1C82.8,68.3,83.9,70.5,84.2,73.1z"/>
	<path d="M118.7,89.2c3.7,5.5,5.8,12,5.8,19.1c0,2.5-0.3,4.9-0.8,7.2c0.5-0.1,1.1-0.3,1.6-0.3c2.4-0.2,4.7,0.4,6.5,1.6
		c0.6-2.7,0.8-5.6,0.8-8.5c0-8.9-2.7-17.1-7.3-23.9C123.9,86.8,121.6,88.7,118.7,89.2z"/>
	<path d="M77.1,147.6c-0.3-2.5,0.4-4.9,1.7-6.8c-9-3.1-16.3-9.9-20.2-18.6c-1.2,0.7-2.5,1.1-4,1.3c-1.6,0.2-3.2-0.1-4.6-0.6
		c4.5,12.4,14.6,22.1,27.3,26.1C77.3,148.5,77.2,148.1,77.1,147.6z"/>
	<path d="M117.2,129.5c-5.1,6.5-12.4,11.1-20.8,12.6c0.5,1,0.8,2.2,1,3.4c0.2,1.8-0.1,3.4-0.7,5c10.8-1.6,20.3-7.3,26.8-15.5
		C120.6,134.1,118.3,132.1,117.2,129.5z"/>
	<path d="M52.6,103.4c1.2-0.1,2.4,0,3.5,0.3c1.2-8.6,5.5-16.2,11.8-21.5c-2.1-1.6-3.6-4.1-3.9-7c0-0.2,0-0.3,0-0.5
		c-9.3,7.2-15.5,18.2-16.4,30.6C49,104.3,50.7,103.6,52.6,103.4z"/>
</g>
<text transform="matrix(1 0 0 1 63.5698 40.2249)" class="st0 st1">EMPOWER</text>
<g>
	<path class="st2" d="M73.1,64.1c5.6-0.6,10.5,3.5,11.1,9s-3.5,10.5-9,11.1s-10.5-3.5-11.1-9C63.5,69.6,67.5,64.6,73.1,64.1z
		 M77.1,147.6c0.6,5.6,5.5,9.6,11.1,9s9.6-5.5,9-11.1s-5.5-9.6-11.1-9C80.6,137,76.6,142,77.1,147.6z M116.3,126.3
		c0.6,5.6,5.5,9.6,11.1,9c5.6-0.6,9.6-5.5,9-11.1c-0.6-5.6-5.5-9.6-11.1-9C119.8,115.8,115.7,120.8,116.3,126.3z M106.6,80.4
		c0.6,5.6,5.5,9.6,11.1,9s9.6-5.5,9-11.1s-5.5-9.6-11.1-9S106,74.8,106.6,80.4z M43.6,114.5c0.6,5.6,5.5,9.6,11.1,9s9.6-5.5,9-11.1
		s-5.5-9.6-11.1-9S43,108.9,43.6,114.5z"/>
</g>
</svg>
