<?xml version="1.0" encoding="utf-8"?>
<!-- Generator: Adobe Illustrator 23.0.4, SVG Export Plug-In . SVG Version: 6.00 Build 0)  -->
<svg version="1.1" id="Layer_1" xmlns="http://www.w3.org/2000/svg" xmlns:xlink="http://www.w3.org/1999/xlink" x="0px" y="0px"
	 viewBox="0 0 180 180" style="enable-background:new 0 0 180 180;" xml:space="preserve">
<style type="text/css">
	.st0{fill:none;stroke:#010101;stroke-width:3.983;stroke-miterlimit:10;}
	.st1{fill:#010101;}
	.st2{fill:none;stroke:#010101;stroke-width:3.8479;stroke-miterlimit:10;}
	.st3{fill:none;stroke:#010101;stroke-width:4.6208;stroke-miterlimit:10;}
	.st4{fill:none;stroke:#010101;stroke-width:7.146;stroke-miterlimit:10;}
	.st5{fill:none;stroke:#010101;stroke-width:3.0756;stroke-miterlimit:10;}
	.st6{fill:none;stroke:#010101;stroke-width:3.9908;stroke-miterlimit:10;}
	.st7{fill:none;stroke:#010101;stroke-width:4.4788;stroke-miterlimit:10;}
	.st8{font-family:'National-Bold';}
	.st9{font-size:12px;}
</style>
<g>
	<path class="st1" d="M98.47,75.72l-3.95-3.95c-0.3-0.3-0.82-0.09-0.82,0.34v2.67h-3.79h-0.83h-3.79v-2.67
		c0-0.43-0.51-0.64-0.82-0.34l-3.95,3.95c-0.19,0.19-0.19,0.49,0,0.68l3.95,3.95c0.3,0.3,0.82,0.09,0.82-0.34v-2.67h3.79h0.83h3.79
		v2.67c0,0.43,0.51,0.64,0.82,0.34l3.95-3.95C98.66,76.21,98.66,75.91,98.47,75.72z"/>
	<g>
		<path class="st1" d="M69.24,99.28c-0.09,0.42,0.37,0.72,0.73,0.49l2.21-1.45l2.52,3.82c0.02,0.04,0.05,0.07,0.08,0.09l0.08,0.12
			l-2.21,1.45c-0.35,0.23-0.25,0.77,0.16,0.86l5.41,1.11c0.26,0.05,0.51-0.11,0.56-0.37l1.11-5.41c0.09-0.42-0.37-0.72-0.73-0.49
			l-2.21,1.45l-2.52-3.82c-0.02-0.04-0.05-0.07-0.08-0.09l-0.08-0.12l2.21-1.45c0.35-0.23,0.25-0.77-0.16-0.86l-5.41-1.11
			c-0.26-0.05-0.51,0.11-0.56,0.37L69.24,99.28z"/>
		<path class="st1" d="M47.31,96.27c-0.41,0.11-0.49,0.65-0.12,0.87l2.28,1.35l-2.33,3.94c-0.02,0.04-0.04,0.08-0.05,0.12
			l-0.07,0.12l-2.28-1.35c-0.36-0.21-0.8,0.12-0.7,0.53l1.38,5.35c0.07,0.25,0.32,0.41,0.58,0.34l5.35-1.38
			c0.41-0.11,0.49-0.65,0.12-0.87l-2.28-1.35l2.33-3.94c0.02-0.04,0.04-0.08,0.05-0.12l0.07-0.12l2.28,1.35
			c0.36,0.21,0.8-0.12,0.7-0.53l-1.38-5.35c-0.07-0.25-0.32-0.41-0.58-0.34L47.31,96.27z"/>
		<path class="st1" d="M56.77,119.95c0.33-0.27,0.81-0.01,0.77,0.41l-0.26,2.63l4.56,0.44c0.04,0,0.08,0.02,0.12,0.03l0.14,0.01
			l0.26-2.63c0.04-0.42,0.57-0.58,0.84-0.26l3.51,4.27c0.17,0.2,0.14,0.5-0.07,0.67l-4.27,3.51c-0.33,0.27-0.81,0.01-0.77-0.41
			l0.26-2.63l-4.56-0.44c-0.04,0-0.08-0.02-0.12-0.03l-0.14-0.01l-0.26,2.63c-0.04,0.42-0.57,0.58-0.84,0.26l-3.51-4.27
			c-0.17-0.2-0.14-0.5,0.07-0.67L56.77,119.95z"/>
		<circle class="st3" cx="36.49" cy="121.19" r="10.44"/>
		<circle class="st3" cx="61.7" cy="80.72" r="10.44"/>
	</g>
	<circle class="st4" cx="89.49" cy="127.5" r="16.15"/>
	<g>
		<path class="st1" d="M110.76,99.28c0.09,0.42-0.37,0.72-0.73,0.49l-2.21-1.45l-2.52,3.82c-0.02,0.04-0.05,0.07-0.08,0.09
			l-0.08,0.12l2.21,1.45c0.35,0.23,0.25,0.77-0.16,0.86l-5.41,1.11c-0.26,0.05-0.51-0.11-0.56-0.37l-1.11-5.41
			c-0.09-0.42,0.37-0.72,0.73-0.49l2.21,1.45l2.52-3.82c0.02-0.04,0.05-0.07,0.08-0.09l0.08-0.12l-2.21-1.45
			c-0.35-0.23-0.25-0.77,0.16-0.86l5.41-1.11c0.26-0.05,0.51,0.11,0.56,0.37L110.76,99.28z"/>
		<path class="st1" d="M132.69,96.27c0.41,0.11,0.49,0.65,0.12,0.87l-2.28,1.35l2.33,3.94c0.02,0.04,0.04,0.08,0.05,0.12l0.07,0.12
			l2.28-1.35c0.36-0.21,0.8,0.12,0.7,0.53l-1.38,5.35c-0.07,0.25-0.32,0.41-0.58,0.34l-5.35-1.38c-0.41-0.11-0.49-0.65-0.12-0.87
			l2.28-1.35l-2.33-3.94c-0.02-0.04-0.04-0.08-0.05-0.12l-0.07-0.12l-2.28,1.35c-0.36,0.21-0.8-0.12-0.7-0.53l1.38-5.35
			c0.07-0.25,0.32-0.41,0.58-0.34L132.69,96.27z"/>
		<path class="st1" d="M123.23,119.95c-0.33-0.27-0.81-0.01-0.77,0.41l0.26,2.63l-4.56,0.44c-0.04,0-0.08,0.02-0.12,0.03l-0.14,0.01
			l-0.26-2.63c-0.04-0.42-0.57-0.58-0.84-0.26l-3.51,4.27c-0.17,0.2-0.14,0.5,0.07,0.67l4.27,3.51c0.33,0.27,0.81,0.01,0.77-0.41
			l-0.26-2.63l4.56-0.44c0.04,0,0.08-0.02,0.12-0.03l0.14-0.01l0.26,2.63c0.04,0.42,0.57,0.58,0.84,0.26l3.51-4.27
			c0.17-0.2,0.14-0.5-0.07-0.67L123.23,119.95z"/>
		<circle class="st3" cx="143.51" cy="121.19" r="10.44"/>
		<circle class="st3" cx="118.3" cy="80.72" r="10.44"/>
	</g>
</g>
<text transform="matrix(1 0 0 1 53.1245 40.2252)" class="st8 st9">COLLABORATE</text>
</svg>
