<?xml version="1.0" encoding="utf-8"?>
<!-- Generator: Adobe Illustrator 23.0.6, SVG Export Plug-In . SVG Version: 6.00 Build 0)  -->
<svg version="1.1" id="Layer_1" xmlns="http://www.w3.org/2000/svg" xmlns:xlink="http://www.w3.org/1999/xlink" x="0px" y="0px"
	 viewBox="0 0 180 180" style="enable-background:new 0 0 180 180;" xml:space="preserve">
<style type="text/css">
	.st0{fill:none;stroke:#010101;stroke-width:3.8479;stroke-miterlimit:10;}
	.st1{font-family:'National-Bold';}
	.st2{font-size:12px;}
</style>
<g>
	<g>
		<circle class="st0" cx="40.5" cy="89.1" r="8.7"/>
		<path d="M68,106.9c-0.3,0-0.6,0.3-0.5,0.7l0.5,3.7L52.3,99.1l3.7-0.4c0.3,0,0.6-0.3,0.5-0.7l-0.1-0.5c0-0.3-0.3-0.6-0.7-0.5
			l-6,0.7c-0.3,0-0.6,0.3-0.5,0.7l0.8,6c0,0.3,0.3,0.6,0.7,0.5l0.5-0.1c0.3,0,0.6-0.3,0.5-0.7l-0.5-3.7l15.7,12.2l-3.7,0.4
			c-0.3,0-0.6,0.3-0.5,0.7l0.1,0.5c0,0.3,0.3,0.6,0.7,0.5l6-0.7c0.3,0,0.6-0.3,0.5-0.7l-0.8-6c0-0.3-0.3-0.6-0.7-0.5L68,106.9z"/>
	</g>
	<g>
		<circle class="st0" cx="65.7" cy="70.1" r="8.7"/>
		<path d="M81.9,99.3c-0.3-0.1-0.7,0-0.8,0.3l-1.4,3.4L72,84.9l3.4,1.4c0.3,0.1,0.7,0,0.8-0.3l0.2-0.5c0.1-0.3,0-0.7-0.3-0.8
			l-5.6-2.3c-0.3-0.1-0.7,0-0.8,0.3l-2.2,5.6c-0.1,0.3,0,0.7,0.3,0.8l0.5,0.2c0.3,0.1,0.7,0,0.8-0.3l1.4-3.4l7.7,18.3l-3.4-1.4
			c-0.3-0.1-0.7,0-0.8,0.3l-0.2,0.5c-0.1,0.3,0,0.7,0.3,0.8l5.6,2.3c0.3,0.1,0.7,0,0.8-0.3l2.2-5.6c0.1-0.3,0-0.7-0.3-0.8L81.9,99.3
			z"/>
	</g>
	<g>
		<g>
			<circle class="st0" cx="139.5" cy="90.9" r="8.7"/>
			<path d="M116,114.1c0-0.3-0.2-0.6-0.5-0.7l-3.7-0.5l15.9-11.9l-0.5,3.7c0,0.3,0.2,0.6,0.5,0.7l0.5,0.1c0.3,0,0.6-0.2,0.7-0.5
				l0.9-6c0-0.3-0.2-0.6-0.5-0.7l-6-0.8c-0.3,0-0.6,0.2-0.7,0.5l-0.1,0.5c0,0.3,0.2,0.6,0.5,0.7l3.7,0.5l-15.9,11.9l0.5-3.7
				c0-0.3-0.2-0.6-0.5-0.7l-0.5-0.1c-0.3,0-0.6,0.2-0.7,0.5l-0.9,6c0,0.3,0.2,0.6,0.5,0.7l6,0.8c0.3,0,0.6-0.2,0.7-0.5L116,114.1z"
				/>
		</g>
		<g>
			<circle class="st0" cx="114.3" cy="71.9" r="8.7"/>
			<path d="M105.7,104.1c-0.1-0.3-0.5-0.5-0.8-0.4l-3.5,1.3l8.5-17.9l1.2,3.5c0.1,0.3,0.5,0.5,0.8,0.4l0.5-0.2
				c0.3-0.1,0.5-0.5,0.4-0.8l-2-5.7c-0.1-0.3-0.5-0.5-0.8-0.4l-5.7,2c-0.3,0.1-0.5,0.5-0.4,0.8l0.2,0.5c0.1,0.3,0.5,0.5,0.8,0.4
				l3.5-1.3l-8.5,17.9l-1.2-3.5c-0.1-0.3-0.5-0.5-0.8-0.4l-0.5,0.2c-0.3,0.1-0.5,0.5-0.4,0.8l2,5.7c0.1,0.3,0.5,0.5,0.8,0.4l5.7-2
				c0.3-0.1,0.5-0.5,0.4-0.8L105.7,104.1z"/>
		</g>
	</g>
	<path d="M89.5,108.8c-11.5,0-20.8,9.3-20.8,20.8c0,11.5,9.3,20.8,20.8,20.8s20.8-9.3,20.8-20.8C110.3,118.1,101,108.8,89.5,108.8z
		 M89.5,146.3c-9.2,0-16.7-7.5-16.7-16.7c0-9.2,7.5-16.7,16.7-16.7s16.7,7.5,16.7,16.7C106.2,138.8,98.7,146.3,89.5,146.3z"/>
</g>
<text transform="matrix(1 0 0 1 67.92 40.2249)" class="st1 st2">INVOLVE</text>
</svg>
