<?xml version="1.0" encoding="utf-8"?>
<!-- Generator: Adobe Illustrator 23.0.6, SVG Export Plug-In . SVG Version: 6.00 Build 0)  -->
<svg version="1.1" id="Layer_1" xmlns="http://www.w3.org/2000/svg" xmlns:xlink="http://www.w3.org/1999/xlink" x="0px" y="0px"
	 viewBox="0 0 180 180" style="enable-background:new 0 0 180 180;" xml:space="preserve">
<style type="text/css">
	.st0{font-family:'National-Bold';}
	.st1{font-size:12px;}
</style>
<text transform="matrix(1 0 0 1 69.4982 40.2249)" class="st0 st1">INFORM</text>
<path d="M89.5,108.8c-11.5,0-20.8,9.3-20.8,20.8c0,11.5,9.3,20.8,20.8,20.8s20.8-9.3,20.8-20.8C110.3,118.1,101,108.8,89.5,108.8z
	 M89.5,146.3c-9.2,0-16.7-7.5-16.7-16.7c0-9.2,7.5-16.7,16.7-16.7s16.7,7.5,16.7,16.7C106.2,138.8,98.7,146.3,89.5,146.3z"/>
<g>
	<g>
		<path d="M42.9,88c-3.8,3.7-3.9,9.8-0.2,13.6c3.7,3.8,9.8,3.9,13.6,0.2s3.9-9.8,0.2-13.6S46.6,84.3,42.9,88z M55,100.4
			c-3.1,3-8,2.9-10.9-0.1c-3-3.1-2.9-8,0.1-10.9c3.1-3,8-2.9,10.9,0.1C58.1,92.5,58,97.4,55,100.4z"/>
		<path d="M58,112.6l0.3,0c0.2,0,0.4-0.2,0.4-0.3l0.1-7.3l7.6,7.8c0.1,0.1,0.4,0.1,0.5,0l0.2-0.2c0.1-0.1,0.1-0.4,0-0.5l-7.6-7.8
			l7.3,0.1c0.2,0,0.4-0.2,0.4-0.3l0-0.3c0-0.2-0.2-0.4-0.3-0.4l-8.7-0.1c-0.2,0-0.4,0.2-0.4,0.3l-0.1,8.7
			C57.7,112.5,57.8,112.6,58,112.6L58,112.6z"/>
	</g>
	<g>
		<path d="M74.3,70.3c-5.2,1.2-8.4,6.3-7.3,11.5s6.3,8.4,11.5,7.3c5.2-1.2,8.4-6.3,7.3-11.5S79.5,69.2,74.3,70.3z M78.2,87.3
			c-4.2,0.9-8.3-1.7-9.3-5.8c-0.9-4.2,1.7-8.3,5.8-9.3c4.2-0.9,8.3,1.7,9.3,5.8C85,82.2,82.3,86.3,78.2,87.3z"/>
		<path d="M74.3,99.3l0.2,0.2c0.2,0.1,0.4,0.1,0.5-0.1l3.9-6.2l2.4,10.7c0,0.2,0.2,0.3,0.4,0.3l0.3-0.1c0.2,0,0.3-0.2,0.3-0.4
			l-2.4-10.7l6.2,3.9c0.2,0.1,0.4,0.1,0.5-0.1l0.2-0.2c0.1-0.2,0.1-0.4-0.1-0.5l-7.3-4.6c-0.2-0.1-0.4-0.1-0.5,0.1l-4.6,7.3
			C74.1,99,74.2,99.2,74.3,99.3L74.3,99.3z"/>
	</g>
</g>
<g>
	<g>
		<path d="M125.1,87.9c-3.7,3.8-3.6,9.9,0.2,13.6c3.8,3.7,9.9,3.6,13.6-0.2c3.7-3.8,3.6-9.9-0.2-13.6
			C134.9,84.1,128.8,84.1,125.1,87.9z M126.4,89.2c3-3.1,7.9-3.1,10.9-0.1c3.1,3,3.1,7.9,0.1,10.9c-3,3.1-7.9,3.1-10.9,0.1
			C123.5,97.2,123.4,92.3,126.4,89.2z"/>
		<path d="M123.5,112.4c0.2,0,0.3-0.2,0.3-0.4l-0.1-8.7c0-0.2-0.2-0.3-0.4-0.3l-8.7,0.1c-0.2,0-0.3,0.2-0.3,0.4l0,0.3
			c0,0.2,0.2,0.3,0.4,0.3l7.3-0.1l-7.6,7.8c-0.1,0.1-0.1,0.4,0,0.5l0.2,0.2c0.1,0.1,0.4,0.1,0.5,0l7.6-7.8l0.1,7.3
			c0,0.2,0.2,0.3,0.4,0.3L123.5,112.4L123.5,112.4z"/>
	</g>
	<g>
		<path d="M95.7,77.4c-1.2,5.2,2.1,10.3,7.3,11.5c5.2,1.2,10.3-2.1,11.5-7.3c1.2-5.2-2.1-10.3-7.3-11.5C102,69,96.9,72.2,95.7,77.4z
			 M97.5,77.8c0.9-4.2,5.1-6.8,9.3-5.8c4.2,0.9,6.8,5.1,5.8,9.3c-0.9,4.2-5.1,6.8-9.3,5.8C99.2,86.1,96.6,82,97.5,77.8z"/>
		<path d="M107.2,99.1c0.2-0.1,0.2-0.3,0.1-0.5l-4.6-7.3c-0.1-0.2-0.3-0.2-0.5-0.1l-7.3,4.6c-0.2,0.1-0.2,0.3-0.1,0.5l0.2,0.2
			c0.1,0.2,0.3,0.2,0.5,0.1l6.2-3.9l-2.4,10.7c0,0.2,0.1,0.4,0.3,0.4l0.3,0.1c0.2,0,0.4-0.1,0.4-0.3l2.4-10.7l3.9,6.2
			c0.1,0.2,0.3,0.2,0.5,0.1L107.2,99.1L107.2,99.1z"/>
	</g>
</g>
</svg>
