<?xml version="1.0" encoding="utf-8"?>
<!-- Generator: Adobe Illustrator 23.0.4, SVG Export Plug-In . SVG Version: 6.00 Build 0)  -->
<svg version="1.1" id="Layer_1" xmlns="http://www.w3.org/2000/svg" xmlns:xlink="http://www.w3.org/1999/xlink" x="0px" y="0px"
	 viewBox="0 0 180 180" style="enable-background:new 0 0 180 180;" xml:space="preserve">
<style type="text/css">
	.st0{fill:none;stroke:#010101;stroke-width:3.983;stroke-miterlimit:10;}
	.st1{fill:#010101;}
	.st2{fill:none;stroke:#010101;stroke-width:3.8479;stroke-miterlimit:10;}
	.st3{fill:none;stroke:#010101;stroke-width:4.6208;stroke-miterlimit:10;}
	.st4{fill:none;stroke:#010101;stroke-width:7.146;stroke-miterlimit:10;}
	.st5{fill:none;stroke:#010101;stroke-width:3.0756;stroke-miterlimit:10;}
	.st6{fill:none;stroke:#010101;stroke-width:3.9908;stroke-miterlimit:10;}
	.st7{fill:none;stroke:#010101;stroke-width:4.4788;stroke-miterlimit:10;}
	.st8{font-family:'National-Bold';}
	.st9{font-size:12px;}
</style>
<g>
	<g>
		<path class="st1" d="M104.41,85.57l-2.43-0.86c-0.4-0.14-0.85,0.07-0.99,0.47l-2.48,7.06l-4.08-1.43
			c-0.65-0.23-1.26,0.44-0.96,1.07l3.91,8.15c0.19,0.39,0.65,0.55,1.03,0.36l8.15-3.91c0.62-0.3,0.57-1.2-0.08-1.43l-4.08-1.43
			l2.48-7.06C105.03,86.16,104.81,85.71,104.41,85.57z"/>
		<circle class="st5" cx="107.1" cy="74.96" r="6.95"/>
	</g>
	<g>
		<path class="st1" d="M121.05,98.49l-1.66-1.98c-0.27-0.33-0.76-0.37-1.09-0.09l-5.73,4.82l-2.78-3.31
			c-0.44-0.53-1.31-0.26-1.37,0.43l-0.78,9c-0.04,0.43,0.28,0.8,0.71,0.84l9,0.78c0.69,0.05,1.1-0.74,0.66-1.27l-2.78-3.31
			l5.73-4.82C121.28,99.31,121.32,98.82,121.05,98.49z"/>
		<circle class="st5" cx="128.76" cy="90.72" r="6.95"/>
	</g>
	<g>
		<path class="st1" d="M75.12,85.44l2.48,7.06l-4.08,1.43c-0.65,0.23-0.7,1.13-0.08,1.43l8.15,3.91c0.39,0.19,0.85,0.02,1.03-0.36
			l3.91-8.15c0.3-0.63-0.3-1.3-0.96-1.07l-4.08,1.43l-2.48-7.06c-0.14-0.4-0.59-0.61-0.99-0.47l-2.43,0.86
			C75.19,84.6,74.97,85.04,75.12,85.44z"/>
		<circle class="st5" cx="72.9" cy="73.85" r="6.95"/>
	</g>
	<g>
		<path class="st1" d="M59.05,98.47l5.73,4.82L62,106.59c-0.44,0.53-0.03,1.33,0.66,1.27l9-0.78c0.43-0.04,0.74-0.41,0.71-0.84
			l-0.78-9c-0.06-0.69-0.92-0.96-1.37-0.43l-2.78,3.31L61.7,95.3c-0.33-0.27-0.82-0.23-1.09,0.09l-1.66,1.98
			C58.68,97.7,58.72,98.19,59.05,98.47z"/>
		<circle class="st5" cx="51.24" cy="89.61" r="6.95"/>
	</g>
	<g>
		<path class="st6" d="M109.13,122.58c0-10.67-8.64-19.31-19.31-19.31s-19.31,8.64-19.31,19.31s8.64,19.31,19.31,19.31
			S109.13,133.24,109.13,122.58z M74.24,122.58c0-8.6,6.97-15.57,15.57-15.57s15.57,6.97,15.57,15.57s-6.97,15.57-15.57,15.57
			S74.24,131.18,74.24,122.58z"/>
	</g>
</g>
<text transform="matrix(1 0 0 1 66.5042 40.2249)" class="st8 st9">CONSULT</text>
</svg>
