<?xml version="1.0" encoding="utf-8"?>
<!-- Generator: Adobe Illustrator 23.0.6, SVG Export Plug-In . SVG Version: 6.00 Build 0)  -->
<svg version="1.1" id="Layer_1" focusable="false" xmlns="http://www.w3.org/2000/svg" xmlns:xlink="http://www.w3.org/1999/xlink"
	 x="0px" y="0px" viewBox="0 0 416 512" style="enable-background:new 0 0 416 512;" xml:space="preserve">
<g>
	<path d="M206.2,312c32.4,1,58.8-25.4,57.8-57.8c-0.9-29.3-24.8-53.2-54.1-54.1c-32.4-1-58.8,25.4-57.8,57.8
		C153,287.2,176.8,311,206.2,312z M204.5,224.2c20.4-2.2,37.5,14.9,35.3,35.3c-1.6,14.8-13.5,26.8-28.3,28.3
		c-20.4,2.2-37.5-14.9-35.3-35.3C177.8,237.7,189.7,225.8,204.5,224.2z"/>
	<path d="M206.2,184c32.4,1,58.8-25.4,57.8-57.8C263,96.8,239.2,73,209.8,72c-32.4-1-58.8,25.4-57.8,57.8
		C153,159.2,176.8,183,206.2,184z M204.5,96.2c20.4-2.2,37.5,14.9,35.3,35.3c-1.6,14.8-13.5,26.8-28.3,28.3
		c-20.4,2.2-37.5-14.9-35.3-35.3C177.8,109.7,189.7,97.8,204.5,96.2z"/>
	<path d="M206.2,440c32.4,1,58.8-25.4,57.8-57.8c-0.9-29.3-24.8-53.2-54.1-54.1c-32.4-1-58.8,25.4-57.8,57.8
		C153,415.2,176.8,439,206.2,440z M204.5,352.2c20.4-2.2,37.5,14.9,35.3,35.3c-1.6,14.8-13.5,26.8-28.3,28.3
		c-20.4,2.2-37.5-14.9-35.3-35.3C177.8,365.7,189.7,353.8,204.5,352.2z"/>
	<path d="M83,19.6v362.9c0,70.1,57.1,127.7,127.2,126.5c67.9-1.2,122.8-56.8,122.8-125V25.4C333,13,323,3,310.6,3h-211
		C90.5,3,83,10.5,83,19.6z M304,384c0,52.9-43.1,96-96,96s-96-43.1-96-96V37.7c0-3.2,2.6-5.7,5.7-5.7h180.5c3.2,0,5.7,2.6,5.7,5.7
		V384z"/>
</g>
</svg>
